Coordinates
version=1
nRows=16
nColumns=22
inDegrees=yes

Units are S.I. units (second, meters, Newtons, ...)
If the header above contains a line with 'inDegrees', this indicates whether rotational values are in degrees (yes) or radians (no).

endheader
time	pelvis_tilt	pelvis_list	pelvis_rotation	pelvis_tx	pelvis_ty	pelvis_tz	hip_flexion_r	hip_adduction_r	hip_rotation_r	knee_angle_r	ankle_angle_r	subtalar_angle_r	hip_flexion_l	hip_adduction_l	hip_rotation_l	knee_angle_l	ankle_angle_l	subtalar_angle_l	lumbar_extension	lumbar_bending	lumbar_rotation
      2.50000000	     -1.58617739	      7.17066911	    -48.92540136	     -0.01616230	      0.96352062	      0.07036869	     37.32716611	     -4.41605789	    -19.83846612	    -21.09768260	     10.17042194	     -6.16857612	      6.18153266	      3.82305532	     -9.43598412	    -21.68971989	     26.69803550	      0.40712450	     -4.21968122	     -3.12504185	      1.08718410
      2.51000000	     -1.46509658	      7.26835642	    -49.28002007	     -0.01125747	      0.96224488	      0.07648416	     37.24234413	     -4.31968267	    -20.33141381	    -19.23128694	     10.28189250	     -6.10421996	      5.58194823	      3.98554641	     -9.81362346	    -21.55841029	     26.91909493	      0.53090896	     -4.20737465	     -3.18574954	      1.10215920
      2.52000000	     -1.39934323	      7.40025919	    -49.59171380	     -0.00629804	      0.96081257	      0.08266976	     37.23645575	     -4.22279788	    -20.71622253	    -17.59975518	     10.43191995	     -6.07297001	      5.09793626	      4.11569079	    -10.18637961	    -21.53082327	     27.14383656	      0.61590324	     -4.11256630	     -3.21144666	      1.07593888
      2.53000000	     -1.30154054	      7.47792470	    -49.85679464	     -0.00120156	      0.95946439	      0.08898199	     37.17118123	     -4.15104275	    -21.00999447	    -16.23758460	     10.68979768	     -6.06898327	      4.55175102	      4.23905541	    -10.46279960	    -21.52826857	     27.34510987	      0.77312672	     -4.08129493	     -3.21246435	      1.01684320
      2.54000000	     -1.21205932	      7.55116418	    -50.06685185	      0.00401958	      0.95809398	      0.09540041	     37.12945402	     -4.11463048	    -21.18148082	    -15.19513061	     10.97728681	     -6.08197560	      4.03112362	      4.35019883	    -10.65727975	    -21.58651415	     27.52421041	      0.95800906	     -4.03645635	     -3.19028581	      0.90936923
      2.55000000	     -1.13827091	      7.60776378	    -50.22286578	      0.00934164	      0.95672294	      0.10193223	     37.10579739	     -4.10136786	    -21.21058906	    -14.49505200	     11.26234242	     -6.11068768	      3.54064839	      4.42944413	    -10.76734449	    -21.72422202	     27.68043145	      1.16909596	     -3.98865566	     -3.13403748	      0.77179862
      2.56000000	     -1.08487615	      7.64109549	    -50.33028472	      0.01474703	      0.95537216	      0.10862585	     37.09434389	     -4.09912371	    -21.08860737	    -14.14382274	     11.50157736	     -6.16590362	      3.07332011	      4.46453733	    -10.80383622	    -21.93846749	     27.80711967	      1.42477901	     -3.93574511	     -3.04013319	      0.60327235
      2.57000000	     -1.06756921	      7.66172268	    -50.39368803	      0.02020914	      0.95401865	      0.11547380	     37.12091764	     -4.10143137	    -20.83476762	    -14.15090609	     11.67922938	     -6.25357913	      2.65446844	      4.45075190	    -10.75635297	    -22.23814809	     27.92093292	      1.66046765	     -3.85900373	     -2.90447204	      0.43106743
      2.58000000	     -1.07352381	      7.63884774	    -50.42772987	      0.02569310	      0.95275821	      0.12254102	     37.13204562	     -4.08001005	    -20.47481275	    -14.45959894	     11.68614331	     -6.44355646	      2.24426441	      4.36715075	    -10.68923260	    -22.61526292	     27.97559322	      2.06979113	     -3.79444624	     -2.72082639	      0.23534493
      2.59000000	     -1.13575628	      7.59188937	    -50.43564963	      0.03118865	      0.95154015	      0.12983043	     37.16928527	     -4.01916190	    -20.07479632	    -15.04331372	     11.51651624	     -6.70722030	      1.87986087	      4.20772228	    -10.56731661	    -23.06713348	     27.99940770	      2.46859538	     -3.69558297	     -2.47717732	      0.04011951
      2.60000000	     -1.24675899	      7.50725047	    -50.43022118	      0.03668001	      0.95042302	      0.13737735	     37.20375168	     -3.90252374	    -19.68361004	    -15.82859266	     11.14517714	     -7.06800294	      1.53850364	      3.96790574	    -10.41438369	    -23.58184550	     27.95862789	      2.91907431	     -3.57841632	     -2.17241614	     -0.13700533
      2.61000000	     -1.41172425	      7.38351506	    -50.42360402	      0.04214642	      0.94942753	      0.14519016	     37.22710469	     -3.71339950	    -19.33632951	    -16.73238762	     10.55241787	     -7.54025237	      1.22276883	      3.64273251	    -10.24864391	    -24.15714036	     27.87000510	      3.43781033	     -3.44044390	     -1.80065875	     -0.30019829
      2.62000000	     -1.63258718	      7.21792355	    -50.43308093	      0.04754930	      0.94857565	      0.15328533	     37.23525210	     -3.43756495	    -19.06412481	    -17.68383131	      9.74353475	     -8.14051593	      0.93518898	      3.22940638	    -10.08251803	    -24.79872460	     27.72036347	      4.03994697	     -3.28349589	     -1.36376273	     -0.43730260
      2.63000000	     -1.89649410	      7.01781164	    -50.47968204	      0.05289322	      0.94790560	      0.16165096	     37.22975217	     -3.08503783	    -18.87481088	    -18.63687458	      8.74509331	     -8.84447119	      0.66600029	      2.74951478	     -9.93157638	    -25.48836536	     27.48137621	      4.71505802	     -3.11256082	     -0.87107995	     -0.54461440
      2.64000000	     -2.22065618	      6.78126857	    -50.56578795	      0.05814661	      0.94743247	      0.17027565	     37.19896420	     -2.62669360	    -18.70444106	    -19.51599477	      7.62889171	     -9.63601022	      0.43215607	      2.19620568	     -9.74509748	    -26.23558663	     27.12752828	      5.48588940	     -2.91917429	     -0.31148307	     -0.57675865
      2.65000000	     -2.61568591	      6.51108940	    -50.71380379	      0.06326799	      0.94712636	      0.17914406	     37.16794025	     -2.05148317	    -18.54748606	    -20.34122943	      6.50328498	    -10.37613788	      0.26777901	      1.55008369	     -9.60531473	    -27.08842778	     26.69314608	      6.27877118	     -2.70173752	      0.33033706	     -0.57367628
